<svg id="Capa_1" enable-background="new 0 0 512 512" height="512" viewBox="0 0 512 512" width="512" xmlns="http://www.w3.org/2000/svg" xmlns:xlink="http://www.w3.org/1999/xlink"><linearGradient id="SVGID_1_" gradientUnits="userSpaceOnUse" x1="256" x2="256" y1="512" y2="45"><stop offset="0" stop-color="#fd5900"/><stop offset="1" stop-color="#ffde00"/></linearGradient><linearGradient id="SVGID_2_" gradientUnits="userSpaceOnUse" x1="256" x2="256" y1="450" y2="0"><stop offset="0" stop-color="#ffe59a"/><stop offset="1" stop-color="#ffffd5"/></linearGradient><g><g><g><path d="m256 255c57.891 0 105-47.109 105-105s-47.109-105-105-105-105 47.109-105 105 47.109 105 105 105zm211-75h-83.793c-6.357 0-12.012 3.999-14.15 9.99-16.934 47.857-62.373 80.01-113.057 80.01s-96.123-32.153-113.057-80.01c-2.139-5.991-7.793-9.99-14.15-9.99h-83.793c-24.814 0-45 20.186-45 45v242c0 24.814 20.186 45 45 45h422c24.814 0 45-20.186 45-45v-242c0-24.814-20.186-45-45-45z" fill="url(#SVGID_1_)"/></g></g><g><g><path d="m256 300c82.8 0 150-67.2 150-150s-67.2-150-150-150-150 67.2-150 150 67.2 150 150 150zm0-60c-8.401 0-15-6.601-15-15 0-8.401 6.599-15 15-15s15 6.599 15 15c0 8.399-6.599 15-15 15zm0-180c24.9 0 45 20.1 45 45 0 15.899-8.699 30.899-22.5 39-4.501 2.701-7.5 7.5-7.5 12.9v8.1c0 8.399-6.599 15-15 15s-15-6.601-15-15v-8.101c0-15.899 8.699-30.899 22.5-39 4.501-2.701 7.5-7.5 7.5-12.9 0-8.401-6.599-15-15-15s-15 6.599-15 15c0 8.399-6.599 15-15 15s-15-6.601-15-15c0-24.899 20.1-44.999 45-44.999zm191.514 215.391c-5.303-6.416-14.795-7.207-21.123-1.919l-170.391 141.992-170.391-141.992c-6.357-5.244-15.82-4.468-21.123 1.919-5.303 6.372-4.453 15.835 1.904 21.138l180 150c.262.217 4.809 3.472 9.609 3.472 4.826 0 9.371-3.274 9.609-3.472l180-150c6.359-5.303 7.208-14.766 1.906-21.138z" fill="url(#SVGID_2_)"/></g></g></g></svg>